<svg width="28" height="28" viewBox="0 0 28 28" fill="none" xmlns="http://www.w3.org/2000/svg">
<g clip-path="url(#clip0_1_118)">
<path d="M14 8.16667V3.5H2.33331V24.5H25.6666V8.16667H14ZM6.99998 22.1667H4.66665V19.8333H6.99998V22.1667ZM6.99998 17.5H4.66665V15.1667H6.99998V17.5ZM6.99998 12.8333H4.66665V10.5H6.99998V12.8333ZM6.99998 8.16667H4.66665V5.83333H6.99998V8.16667ZM11.6666 22.1667H9.33331V19.8333H11.6666V22.1667ZM11.6666 17.5H9.33331V15.1667H11.6666V17.5ZM11.6666 12.8333H9.33331V10.5H11.6666V12.8333ZM11.6666 8.16667H9.33331V5.83333H11.6666V8.16667ZM23.3333 22.1667H14V19.8333H16.3333V17.5H14V15.1667H16.3333V12.8333H14V10.5H23.3333V22.1667ZM21 12.8333H18.6666V15.1667H21V12.8333ZM21 17.5H18.6666V19.8333H21V17.5Z" fill="#9C9C9C"/>
</g>
<defs>
<clipPath id="clip0_1_118">
<rect width="28" height="28" fill="white"/>
</clipPath>
</defs>
</svg>
