<svg width="28" height="22" viewBox="0 0 28 22" fill="none" xmlns="http://www.w3.org/2000/svg">
<path d="M27.3 19.2682H23.8V5.02462C23.8 3.86401 22.8581 2.91927 21.7 2.91927H16.8V5.64409H21V21.993H27.3C27.6868 21.993 28 21.6882 28 21.3118V19.9494C28 19.573 27.6868 19.2682 27.3 19.2682ZM13.6605 0.237448L5.2605 2.35514C4.63706 2.51225 4.2 3.0768 4.2 3.72479V19.2682H0.7C0.31325 19.2682 0 19.573 0 19.9494V21.3118C0 21.6882 0.31325 21.993 0.7 21.993H15.4V1.6071C15.4 0.688321 14.5442 0.0143535 13.6605 0.237448ZM11.55 12.4561C10.9703 12.4561 10.5 11.846 10.5 11.0937C10.5 10.3414 10.9703 9.73132 11.55 9.73132C12.1297 9.73132 12.6 10.3414 12.6 11.0937C12.6 11.846 12.1297 12.4561 11.55 12.4561Z" fill="#9C9C9C"/>
</svg>
